<svg xmlns="http://www.w3.org/2000/svg" viewBox="0 0 1600 1000" role="img" aria-label="A wildflower meadow with rolling Midlothian hills in the distance">
  <defs>
    <linearGradient id="sky" x1="0" x2="0" y1="0" y2="1">
      <stop stop-color="#d7e8f1"/>
      <stop offset="1" stop-color="#f8f6f0"/>
    </linearGradient>
    <linearGradient id="field" x1="0" x2="0" y1="0" y2="1">
      <stop stop-color="#8aa66a"/>
      <stop offset="1" stop-color="#355322"/>
    </linearGradient>
  </defs>
  <rect width="1600" height="1000" fill="url(#sky)"/>
  <path d="M0 455c260-110 470-118 720-18 245 99 497 69 880-76v639H0z" fill="#6f8f51"/>
  <path d="M0 575c260-120 497-113 705-30 260 103 553 94 895-54v509H0z" fill="url(#field)"/>
  <g opacity=".9">
    <circle cx="198" cy="745" r="16" fill="#f5d55c"/><circle cx="242" cy="804" r="12" fill="#ffffff"/>
    <circle cx="370" cy="712" r="13" fill="#e8b0be"/><circle cx="510" cy="795" r="15" fill="#f5d55c"/>
    <circle cx="690" cy="735" r="12" fill="#ffffff"/><circle cx="820" cy="842" r="16" fill="#e8b0be"/>
    <circle cx="1040" cy="742" r="13" fill="#ffffff"/><circle cx="1190" cy="805" r="15" fill="#f5d55c"/>
    <circle cx="1390" cy="720" r="12" fill="#e8b0be"/>
  </g>
  <g stroke="#f8f6f0" stroke-width="5" opacity=".55">
    <path d="M190 755v110M370 725v95M510 810v95M820 855v85M1190 818v92"/>
  </g>
</svg>
